<svg id="Capa_1" enable-background="new 0 0 512 512" height="512" viewBox="0 0 512 512" width="512" xmlns="http://www.w3.org/2000/svg" xmlns:xlink="http://www.w3.org/1999/xlink"><linearGradient id="SVGID_1_" gradientUnits="userSpaceOnUse" x1="256" x2="256" y1="512" y2="0"><stop offset="0" stop-color="#addcff"/><stop offset=".5028" stop-color="#eaf6ff"/><stop offset="1" stop-color="#eaf6ff"/></linearGradient><linearGradient id="SVGID_2_" gradientUnits="userSpaceOnUse" x1="256" x2="256" y1="105" y2="407"><stop offset="0" stop-color="#5558ff"/><stop offset="1" stop-color="#00c0ff"/></linearGradient><g><g><circle cx="256" cy="256" fill="url(#SVGID_1_)" r="256"/></g><g><g><path d="m249.72 244.515-29.249-29.249-44.412 44.412v5.204h124.353v-58.499l-38.132 38.132c-3.47 3.47-9.09 3.47-12.56 0zm148.398-139.515h-284.236c-4.91 0-8.882 3.973-8.882 8.882 0 4.91 3.973 8.882 8.882 8.882h8.882v186.529c0 4.91 3.973 8.882 8.882 8.882h77.99l-14.212 71.059h-10.484c-4.91 0-8.882 3.973-8.882 8.882 0 4.91 3.973 8.882 8.882 8.882h35.529c4.91 0 8.882-3.973 8.882-8.882 0-4.91-3.973-8.882-8.882-8.882h-6.931l7.106-35.53h70.708l7.106 35.53h-6.931c-4.91 0-8.882 3.973-8.882 8.882 0 4.91 3.973 8.882 8.882 8.882h35.529c4.91 0 8.882-3.973 8.882-8.882 0-4.91-3.973-8.882-8.882-8.882h-10.484l-14.212-71.059h77.99c4.91 0 8.882-3.973 8.882-8.882v-186.528h8.882c4.91 0 8.882-3.973 8.882-8.882.004-4.91-3.969-8.883-8.878-8.883zm-173.92 230.941 3.553-17.765h56.497l3.553 17.765zm129.508-151c0 4.91-3.973 8.882-8.882 8.882-4.91 0-8.882-3.973-8.882-8.882v-14.087l-17.765 17.765v85.146c0 4.91-3.973 8.882-8.882 8.882h-142.119c-4.91 0-8.882-3.973-8.882-8.882v-17.765c0-2.359.937-4.615 2.602-6.28l53.294-53.294c3.47-3.47 9.091-3.47 12.56 0l29.25 29.249 46.997-46.988c.017-.017.017-.035.035-.052l20.35-20.341h-14.087c-4.91 0-8.882-3.973-8.882-8.882 0-4.91 3.973-8.882 8.882-8.882h35.529c3.992 0 8.882 3.565 8.882 8.882z" fill="url(#SVGID_2_)"/></g></g></g></svg>