<svg id="Capa_1" enable-background="new 0 0 512 512" height="512" viewBox="0 0 512 512" width="512" xmlns="http://www.w3.org/2000/svg" xmlns:xlink="http://www.w3.org/1999/xlink"><linearGradient id="SVGID_1_" gradientUnits="userSpaceOnUse" x1="256" x2="256" y1="512" y2="0"><stop offset="0" stop-color="#ffe59a"/><stop offset="1" stop-color="#ffffd5"/></linearGradient><linearGradient id="SVGID_2_" gradientUnits="userSpaceOnUse" x1="256" x2="256" y1="105" y2="407"><stop offset="0" stop-color="#fd5900"/><stop offset="1" stop-color="#ffde00"/></linearGradient><g><g><circle cx="256" cy="256" fill="url(#SVGID_1_)" r="256"/></g><g><g><path d="m256 140.529c4.91 0 8.882-3.973 8.882-8.882v-17.765c0-4.91-3.973-8.882-8.882-8.882s-8.882 3.973-8.882 8.882v17.765c0 4.91 3.972 8.882 8.882 8.882zm-97.706 97.706c0-4.91-3.973-8.882-8.883-8.882h-17.765c-4.909 0-8.882 3.973-8.882 8.882 0 4.91 3.973 8.882 8.882 8.882h17.765c4.91.001 8.883-3.972 8.883-8.882zm222.059-8.882h-17.765c-4.91 0-8.883 3.973-8.883 8.882 0 4.91 3.973 8.882 8.883 8.882h17.765c4.909 0 8.882-3.973 8.882-8.882s-3.973-8.882-8.882-8.882zm-221.105 54.482-15.388 8.882c-4.25 2.455-5.707 7.885-3.244 12.135 2.418 4.219 7.843 5.712 12.126 3.253l15.388-8.882c4.25-2.455 5.708-7.885 3.244-12.135-2.445-4.259-7.893-5.69-12.126-3.253zm193.504-91.2 15.388-8.882c4.251-2.455 5.708-7.885 3.244-12.135-2.429-4.268-7.876-5.699-12.127-3.253l-15.388 8.882c-4.25 2.455-5.708 7.885-3.244 12.135 2.416 4.215 7.838 5.714 12.127 3.253zm-47.899-39.016c4.275 2.454 9.708.978 12.126-3.253l8.882-15.379c2.463-4.25 1.006-9.68-3.244-12.135-4.25-2.429-9.68-1.006-12.126 3.253l-8.882 15.379c-2.464 4.25-1.006 9.68 3.244 12.135zm-109.832-3.253c2.42 4.235 7.858 5.703 12.126 3.253 4.25-2.455 5.708-7.885 3.244-12.135l-8.882-15.379c-2.446-4.276-7.894-5.708-12.126-3.253-4.25 2.455-5.708 7.885-3.244 12.135zm173.118 142.352-15.388-8.882c-4.25-2.411-9.698-.989-12.126 3.253-2.464 4.25-1.006 9.68 3.244 12.135l15.388 8.882c4.295 2.465 9.714.955 12.127-3.253 2.463-4.25 1.006-9.68-3.245-12.135zm-200.008-115.471-15.388-8.882c-4.233-2.42-9.68-.997-12.126 3.253-2.463 4.25-1.006 9.68 3.244 12.135l15.388 8.882c4.288 2.461 9.71.963 12.126-3.253 2.463-4.25 1.006-9.68-3.244-12.135zm43.457 185.341c0 24.487 19.916 44.412 44.412 44.412s44.412-19.925 44.412-44.412v-8.882h-88.823v8.882zm44.412-204.294c-44.082 0-79.941 35.859-79.941 79.941 0 29.336 10.236 44.681 19.257 58.221 7.567 11.359 14.23 21.4 15.871 39.485h89.628c1.641-18.085 8.303-28.126 15.871-39.485 9.021-13.54 19.257-28.885 19.257-58.221-.002-44.082-35.861-79.941-79.943-79.941zm0 88.824c14.694 0 26.647 11.953 26.647 26.647 0 11.565-7.448 21.332-17.765 25.011v10.519c0 4.91-3.973 8.882-8.882 8.882s-8.882-3.973-8.882-8.882v-10.519c-10.317-3.679-17.765-13.446-17.765-25.011 0-4.91 3.973-8.882 8.882-8.882s8.882 3.973 8.882 8.882c0 4.901 3.99 8.882 8.882 8.882s8.882-3.981 8.882-8.882-3.99-8.882-8.882-8.882c-14.694 0-26.647-11.953-26.647-26.647 0-11.565 7.448-21.332 17.765-25.011v-10.518c0-4.91 3.973-8.882 8.882-8.882s8.882 3.973 8.882 8.882v10.518c10.317 3.679 17.765 13.446 17.765 25.011 0 4.91-3.973 8.882-8.882 8.882s-8.882-3.973-8.882-8.882c0-4.901-3.99-8.882-8.882-8.882s-8.882 3.981-8.882 8.882c0 4.9 3.99 8.882 8.882 8.882z" fill="url(#SVGID_2_)"/></g></g></g></svg>