<svg id="Capa_1" enable-background="new 0 0 512 512" height="512" viewBox="0 0 512 512" width="512" xmlns="http://www.w3.org/2000/svg" xmlns:xlink="http://www.w3.org/1999/xlink"><linearGradient id="SVGID_1_" gradientUnits="userSpaceOnUse" x1="256" x2="256" y1="512" y2="0"><stop offset="0" stop-color="#ffbef9"/><stop offset="1" stop-color="#fff1ff"/></linearGradient><linearGradient id="SVGID_2_" gradientUnits="userSpaceOnUse" x1="256" x2="256" y1="105" y2="407"><stop offset="0" stop-color="#a93aff"/><stop offset="1" stop-color="#ff81ff"/></linearGradient><g><g><circle cx="256" cy="256" fill="url(#SVGID_1_)" r="256"/></g><g><g><path d="m362.588 264.882h-115.47v-115.47c0-4.91-3.973-8.882-8.882-8.882-73.47 0-133.235 59.765-133.235 133.235s59.764 133.235 133.234 133.235 133.235-59.765 133.235-133.235c.001-4.91-3.972-8.883-8.882-8.883zm-88.823-159.882c-4.91 0-8.882 3.973-8.882 8.882v124.353c0 4.91 3.973 8.882 8.882 8.882h124.353c4.91 0 8.882-3.973 8.882-8.882 0-73.47-59.765-133.235-133.235-133.235z" fill="url(#SVGID_2_)"/></g></g></g></svg>